<svg xmlns="http://www.w3.org/2000/svg" viewBox="0 0 249 231" xmlns:v="https://vecta.io/nano"><path d="M116.31 87.42a5.22 5.22 0 0 1 .58 0c-10.73 24.72-40.53 42.11-72 33a60.79 60.79 0 1 1 76.72-48.3H39.73V51.94H101c-.39-1.24-.67-2.31-1.06-3.33C94.37 34 83.92 25 68.58 22.2 47 18.24 26 33.07 22.09 54.57c-3.85 21.29 8.85 41.6 29.79 46.74 16.1 4 30.56-1.53 41.65-13.86M242.6 36.76c-6.72 0-17.4-.1-24 .06a16.23 16.23 0 0 0-1.75-2.46 39 39 0 0 0-31.75-12.68 40.53 40.53 0 0 0-5.18 80.24c20.21 4.1 41.05-8.73 46.49-28.63.09-.3.14-.61.24-1h-58.8v-20.2h79.41c4.83 23.89-7.62 56.25-40.11 67.56-31.66 11-66.39-6.21-77.16-38.1s6.66-66.86 38.53-77.19 62.83 6.71 74.08 32.4z" fill="#8ec53f"/><path d="M21.66,158.18V138.09H227.05v20.09Z" fill="#0e76bc"/><path d="M120.07 200.77l-1.28 17.47h-9.32l2.56-26.36h14.2l3.92 14.06h.24l1.66-5.7 2.45-8.48h.74 13.27l2.57 26.52h-2.22-6.12a10.41 10.41 0 0 1-1.36 0l-1.27-16.65a1.84 1.84 0 0 0-.31-.95l-2.44 8.18-2.81 9.42h-9.67" fill="#e52627"/><path d="M35.29 179.78l12.74.1v.12l-9 13.26q-12.12 18-24.23 35.93c-.45.68-.65 1-.7.95H1.45l1.73-2.65" fill="#e52527"/><path d="M203 191c4.74-.05 8.83.84 12.37 3.46a13.12 13.12 0 0 1 0 21.06c-6.4 5-17.82 4.88-24.12-.21a13.15 13.15 0 0 1 2.75-22.39 20.4 20.4 0 0 1 9-1.92zm.59 20.48a8.09 8.09 0 0 0 1.07-.06c2.7-.41 4.74-1.73 5.52-4.45a6 6 0 0 0-1.77-6.65c-2.31-1.94-5-2-7.81-1.24a5.56 5.56 0 0 0-3.8 3.37c-1.89 4.67 1.26 9 6.78 9.02z" fill="#e52526"/><path d="M73.38 218.25l1.28-2.1 16.57-24.31h.47 13.44v26.44H96V214h-7.55-1.2l-2.45 4.3m5.38-10h5.72V199z" fill="#e52627"/><path d="M48,180v-.11H58.52V230H48.05v-1.35q0-23.56,0-47.13C48,181,48,180.51,48,180Z" fill="#1d4794"/><path d="M164.71 211.42v6.83h-9.34v-26.39c.3 0 .6-.09.9-.09h17.5a11.56 11.56 0 0 1 6 1.45c3.66 2.18 4.61 5.65 4.23 9.59a8.57 8.57 0 0 1-6.93 7.88 52.39 52.39 0 0 1-7.83.71c-1.47.09-2.95.02-4.53.02zm0-6.13a1.09 1.09 0 0 0 .32.12c1.35 0 2.71.08 4.06 0a12.92 12.92 0 0 0 3.05-.45 3.1 3.1 0 0 0 2.22-3.31 2.92 2.92 0 0 0-2.39-3c-2.39-.3-4.8-.32-7.26-.46z" fill="#e52527"/><path d="M224,218.25V191.87h9.33v18.69H248v7.69Z" fill="#e52628"/></svg>