<?xml version="1.0" standalone="no"?>
<!DOCTYPE svg PUBLIC "-//W3C//DTD SVG 20010904//EN"
 "http://www.w3.org/TR/2001/REC-SVG-20010904/DTD/svg10.dtd">
<svg version="1.0" xmlns="http://www.w3.org/2000/svg"
 width="400.000000pt" height="400.000000pt" viewBox="0 0 400.000000 400.000000"
 preserveAspectRatio="xMidYMid meet">
<metadata>
Created by potrace 1.16, written by Peter Selinger 2001-2019
</metadata>
<g transform="translate(0.000000,400.000000) scale(0.100000,-0.100000)"
fill="#000000" stroke="none">
<path d="M190 2750 l0 -680 1815 0 1815 0 0 680 0 680 -1815 0 -1815 0 0 -680z
m1256 381 c81 -38 147 -105 187 -189 30 -63 32 -74 32 -177 0 -98 -3 -116 -26
-165 -38 -82 -109 -154 -187 -192 -61 -30 -74 -33 -162 -33 -85 0 -101 3 -155
29 -80 40 -149 111 -188 194 -30 62 -32 75 -32 172 0 93 3 112 27 162 93 200
315 288 504 199z m578 -247 c10 -4 16 -18 16 -35 0 -26 -2 -28 -30 -23 -45 9
-78 -3 -95 -36 -31 -61 8 -116 81 -112 42 1 44 0 44 -27 0 -23 -5 -30 -29 -34
-117 -24 -209 110 -144 211 30 48 107 75 157 56z m227 -121 c24 -70 46 -131
47 -135 2 -4 -53 -8 -122 -8 l-125 0 45 126 c24 70 47 131 50 135 3 5 18 9 33
9 27 0 30 -5 72 -127z m131 20 l3 -108 43 -3 c37 -3 42 -6 42 -28 0 -23 -2
-24 -75 -24 l-75 0 0 128 c0 71 3 132 7 135 3 4 17 7 29 7 23 0 23 -3 26 -107z
m243 77 c0 -20 -6 -26 -27 -28 l-27 -3 -3 -102 -3 -102 -27 -3 -28 -3 0 105 0
106 -30 0 c-32 0 -47 18 -36 45 5 13 22 15 93 13 86 -3 88 -3 88 -28z m175 0
c0 -28 -2 -30 -40 -30 -36 0 -40 -2 -40 -25 0 -22 4 -25 40 -25 36 0 40 -2 40
-25 0 -22 -4 -25 -40 -25 -38 0 -40 -2 -40 -31 0 -31 0 -31 50 -27 53 3 60 -4
33 -34 -12 -14 -31 -18 -80 -18 l-63 0 0 135 0 135 70 0 70 0 0 -30z m137 -5
c9 -19 20 -35 23 -35 3 0 14 16 23 35 14 30 21 35 52 35 19 0 35 -3 35 -8 0
-4 -16 -31 -35 -59 -19 -29 -35 -55 -35 -59 0 -4 12 -23 27 -43 15 -20 38 -51
51 -68 l24 -33 -39 0 c-36 0 -43 4 -67 40 -14 22 -30 40 -35 40 -6 0 -22 -18
-38 -40 -24 -34 -33 -40 -66 -40 l-38 0 43 60 c24 34 47 67 52 74 6 8 -3 30
-28 67 -20 29 -36 57 -36 61 0 5 16 8 35 8 31 0 38 -5 52 -35z"/>
<path d="M1200 3134 c-76 -20 -157 -78 -202 -144 -20 -30 -39 -65 -43 -77 l-6
-23 130 0 c72 0 131 -1 131 -2 0 -2 -11 -38 -24 -80 -13 -43 -20 -78 -16 -78
5 0 106 34 226 75 120 41 222 75 228 75 5 0 -36 -34 -92 -76 -56 -42 -102 -81
-102 -86 0 -5 16 -61 36 -124 20 -64 34 -118 31 -121 -3 -3 -51 30 -106 72
l-100 77 -101 -77 c-56 -42 -103 -75 -105 -73 -3 2 11 55 30 117 19 63 35 119
35 126 0 16 -199 169 -208 160 -4 -4 -7 -52 -7 -108 0 -90 3 -109 27 -159 35
-76 99 -143 173 -181 55 -29 68 -32 155 -32 83 0 102 3 151 28 67 33 151 118
181 184 19 40 22 67 23 158 0 98 -3 116 -26 166 -51 107 -138 180 -248 205
-70 17 -101 17 -171 -2z m170 -240 c0 -14 -146 -19 -154 -6 -4 7 50 196 70
242 6 13 83 -205 84 -236z"/>
<path d="M192 1255 l3 -685 1815 0 1815 0 3 685 2 685 -1820 0 -1820 0 2 -685z
m3143 425 c29 -18 64 -74 54 -85 -3 -2 -22 0 -44 5 -64 14 -119 -5 -165 -57
-36 -42 -39 -43 -49 -24 -15 28 -14 87 3 120 31 58 138 80 201 41z m-315 -166
c47 -19 50 -29 13 -39 -154 -37 -193 -250 -62 -344 23 -17 44 -29 46 -27 3 2
-3 25 -11 50 -31 91 -15 183 40 237 29 28 43 33 91 37 48 3 64 0 92 -20 73
-49 97 -141 64 -240 -24 -70 -13 -76 46 -22 49 43 65 88 59 165 -6 76 -42 125
-118 155 l-53 22 26 17 c36 23 97 30 143 15 124 -40 180 -166 139 -316 -35
-131 -128 -232 -233 -254 -41 -9 -59 -8 -104 7 -46 16 -59 17 -84 6 -43 -18
-133 -15 -179 6 -112 51 -208 239 -188 368 13 81 69 153 139 178 52 19 85 18
134 -1z m-770 -111 l0 -76 23 21 c25 23 66 28 97 12 28 -15 40 -65 40 -166 0
-77 -3 -94 -15 -94 -12 0 -15 18 -15 98 0 72 -4 103 -16 120 -22 31 -67 29
-93 -4 -18 -23 -21 -41 -21 -120 0 -77 -3 -94 -15 -94 -13 0 -15 28 -15 190 0
162 2 190 15 190 12 0 15 -15 15 -77z m-120 2 c0 -29 4 -34 27 -37 39 -4 40
-26 2 -30 l-32 -3 2 -95 c2 -99 12 -124 42 -115 13 4 19 1 19 -9 0 -22 -63
-21 -81 0 -9 11 -15 53 -17 120 -4 95 -6 104 -24 104 -60 0 -88 -50 -88 -160
0 -64 -3 -80 -15 -80 -13 0 -15 22 -15 135 0 113 2 135 15 135 9 0 15 -9 15
-25 0 -25 0 -25 19 -6 11 11 36 23 55 27 31 5 36 10 36 33 0 29 18 54 32 45 4
-3 8 -20 8 -39z m-1621 -32 c6 -21 20 -78 32 -127 l22 -90 13 45 c7 24 22 81
34 127 14 51 27 82 36 82 14 0 18 -12 58 -165 13 -49 26 -83 29 -75 3 8 17 66
32 128 19 76 32 112 41 112 19 0 19 -1 -22 -165 -30 -121 -40 -145 -55 -145
-19 0 -19 0 -60 165 l-23 90 -31 -125 c-26 -104 -34 -125 -51 -128 -17 -2 -23
13 -53 135 -19 76 -36 146 -39 156 -3 11 1 17 11 17 10 0 20 -14 26 -37z m481
-16 c36 -28 50 -62 50 -120 0 -118 -72 -178 -159 -132 -75 38 -82 198 -10 249
27 19 97 21 119 3z m249 -3 c30 -21 51 -73 51 -125 0 -116 -104 -180 -182
-110 -27 24 -32 36 -36 89 -5 77 1 102 34 135 32 32 95 37 133 11z m180 -21
c5 -21 18 -68 27 -105 17 -62 34 -90 34 -54 0 8 9 55 21 105 31 135 43 127 84
-54 9 -38 18 -71 19 -73 2 -1 16 47 31 108 18 70 33 110 42 110 19 0 16 -22
-20 -150 -27 -96 -36 -115 -53 -118 -18 -3 -23 7 -39 85 -20 96 -33 140 -34
111 -1 -9 -10 -57 -22 -107 -17 -75 -24 -91 -40 -91 -19 0 -21 4 -69 180 -24
89 -24 90 -5 90 8 0 18 -16 24 -37z m450 21 c49 -35 66 -134 35 -200 -29 -61
-107 -83 -156 -44 -37 29 -51 71 -46 141 4 54 8 66 36 90 38 34 93 39 131 13z
m701 1 c0 -11 -11 -15 -39 -15 -41 0 -67 -20 -58 -44 4 -9 25 -27 49 -42 55
-34 68 -51 68 -90 0 -56 -58 -86 -127 -68 -42 11 -27 32 20 27 33 -4 46 -1 60
15 26 28 18 52 -23 78 -83 52 -99 88 -58 131 26 28 108 34 108 8z"/>
<path d="M904 1338 c-51 -24 -66 -133 -27 -186 58 -78 150 1 129 112 -12 62
-58 95 -102 74z"/>
<path d="M1153 1340 c-48 -19 -67 -107 -39 -175 23 -55 83 -61 119 -13 39 52
21 164 -29 187 -14 6 -26 11 -27 10 -1 0 -12 -4 -24 -9z"/>
<path d="M1783 1340 c-85 -35 -58 -227 31 -218 60 6 94 112 57 180 -10 20 -52
51 -64 47 -1 0 -12 -4 -24 -9z"/>
</g>
</svg>
